<?xml version="1.0" encoding="UTF-8"?>
<svg id="Camada_1" xmlns="http://www.w3.org/2000/svg" version="1.1" viewBox="0 0 32 32">
  <!-- Generator: Adobe Illustrator 29.6.1, SVG Export Plug-In . SVG Version: 2.1.1 Build 9)  -->
  <defs>
    <style>
      .st0 {
        fill: #fff;
      }
    </style>
  </defs>
  <path class="st0" d="M16,0C7.2,0,0,7.2,0,16s7.2,16,16,16,16-7.2,16-16S24.8,0,16,0ZM8.1,26c.7-1.4,4.9-2.8,7.9-2.8s7.2,1.4,7.9,2.8c-2.2,1.7-4.9,2.8-7.9,2.8s-5.7-1-7.9-2.8ZM26.2,23.7c-2.3-2.8-7.8-3.7-10.2-3.7s-7.9.9-10.2,3.7c-1.6-2.1-2.6-4.8-2.6-7.7,0-7.1,5.7-12.8,12.8-12.8s12.8,5.7,12.8,12.8-1,5.6-2.6,7.7h0ZM16,6.4c-3.1,0-5.6,2.5-5.6,5.6s2.5,5.6,5.6,5.6,5.6-2.5,5.6-5.6-2.5-5.6-5.6-5.6ZM16,14.4c-1.3,0-2.4-1.1-2.4-2.4s1.1-2.4,2.4-2.4,2.4,1.1,2.4,2.4-1.1,2.4-2.4,2.4Z"/>
</svg>