<?xml version="1.0" encoding="UTF-8"?>
<svg id="Camada_1" xmlns="http://www.w3.org/2000/svg" version="1.1" viewBox="0 0 26 32">
  <!-- Generator: Adobe Illustrator 29.6.1, SVG Export Plug-In . SVG Version: 2.1.1 Build 9)  -->
  <defs>
    <style>
      .st0 {
        fill: #fff;
      }
    </style>
  </defs>
  <path class="st0" d="M22.5,6.5h-3.2C19.3,3,16.5.2,13,.2s-6.3,2.8-6.3,6.3h-3.2c-1.7,0-3.2,1.4-3.2,3.2v17c0,1.7,1.4,3.2,3.2,3.2h19c1.7,0,3.2-1.4,3.2-3.2V9.7c0-1.7-1.4-3.2-3.2-3.2ZM13,3.3c1.7,0,3.2,1.4,3.2,3.2h-6.3c0-1.7,1.4-3.2,3.2-3.2ZM22.5,26.7H3.5V9.7h3.2v3.2c0,.9.7,1.6,1.6,1.6s1.6-.7,1.6-1.6v-3.2h6.3v3.2c0,.9.7,1.6,1.6,1.6s1.6-.7,1.6-1.6v-3.2h3.2v17Z"/>
</svg>